<?xml version="1.0" standalone="no"?>
<!DOCTYPE svg PUBLIC "-//W3C//DTD SVG 20010904//EN"
 "http://www.w3.org/TR/2001/REC-SVG-20010904/DTD/svg10.dtd">
<svg version="1.0" xmlns="http://www.w3.org/2000/svg"
 width="512.000000pt" height="512.000000pt" viewBox="0 0 512.000000 512.000000"
 preserveAspectRatio="xMidYMid meet">

<g transform="translate(0.000000,512.000000) scale(0.100000,-0.100000)"
fill="#000000" stroke="none">
<path d="M3865 5089 c-275 -37 -491 -150 -687 -358 l-86 -91 -1049 0 c-701 0
-1069 -4 -1109 -11 -212 -38 -405 -231 -443 -443 -8 -41 -11 -560 -11 -1631 0
-1538 0 -1573 20 -1650 52 -202 204 -354 407 -405 77 -20 107 -20 1683 -18
l1605 3 66 26 c96 37 153 73 215 136 63 64 96 118 133 212 l26 66 3 967 3 968
93 142 c230 351 333 577 371 811 93 572 -293 1133 -865 1258 -105 22 -280 31
-375 18z m275 -164 c450 -68 787 -435 817 -889 11 -171 -32 -354 -132 -561
-68 -141 -126 -236 -355 -585 -254 -387 -352 -560 -431 -762 -19 -49 -36 -88
-39 -88 -3 0 -16 28 -29 63 -80 209 -187 400 -441 787 -229 349 -287 444 -355
585 -166 344 -177 628 -35 921 138 286 402 481 715 530 109 17 173 16 285 -1z
m-1172 -516 c-61 -145 -81 -248 -82 -419 -1 -166 6 -212 56 -369 l30 -94
-1166 -1166 -1166 -1166 2 1490 3 1490 32 67 c17 37 50 87 72 111 44 48 135
101 197 116 22 5 479 9 1046 10 l1006 1 -30 -71z m112 -1101 c18 -35 73 -128
123 -207 l89 -144 -1153 -1154 c-1128 -1128 -1155 -1154 -1187 -1149 -132 20
-272 159 -298 295 -7 33 -3 37 1187 1227 657 657 1197 1194 1200 1194 3 0 21
-28 39 -62z m402 -635 c259 -404 365 -634 422 -923 27 -135 42 -160 96 -160
53 0 70 26 91 143 39 217 137 460 291 721 39 66 77 130 84 141 12 16 14 -107
14 -790 l0 -809 -188 187 c-166 165 -192 187 -221 187 -43 0 -81 -38 -81 -82
0 -28 24 -56 216 -249 l216 -216 -55 -57 c-75 -77 -160 -116 -265 -123 l-77
-5 -708 709 -707 708 145 145 145 145 183 -183 c162 -161 187 -182 216 -182
43 0 81 38 81 81 0 29 -21 54 -182 216 l-183 183 180 180 c99 99 183 180 186
180 4 0 49 -66 101 -147z m-337 -1383 l650 -650 -1300 0 -1300 0 650 650 c357
358 650 650 650 650 0 0 293 -292 650 -650z"/>
<path d="M3783 4425 c-121 -60 -213 -176 -248 -312 -65 -249 94 -511 352 -578
249 -65 511 94 578 352 32 122 8 193 -65 193 -49 0 -76 -34 -83 -109 -8 -73
-54 -168 -100 -207 -16 -14 -53 -37 -81 -52 -43 -22 -64 -26 -136 -26 -72 0
-93 4 -136 26 -75 40 -107 70 -145 140 -30 57 -33 71 -34 148 0 70 5 94 25
135 33 67 92 124 164 159 33 15 66 35 73 44 34 46 -7 122 -65 122 -16 0 -61
-16 -99 -35z"/>
<path d="M4095 4425 c-46 -45 -29 -104 38 -135 23 -11 64 -38 91 -60 53 -44
64 -47 105 -25 32 16 41 33 41 74 0 53 -156 171 -225 171 -14 0 -37 -11 -50
-25z"/>
<path d="M3935 4146 c-101 -44 -125 -178 -46 -257 112 -113 296 -12 267 146
-18 94 -131 151 -221 111z"/>
<path d="M905 4135 c-24 -23 -25 -31 -25 -135 0 -104 1 -112 25 -135 15 -16
36 -25 55 -25 19 0 40 9 55 25 24 23 25 31 25 135 0 104 -1 112 -25 135 -15
16 -36 25 -55 25 -19 0 -40 -9 -55 -25z"/>
<path d="M1305 4135 c-24 -23 -25 -31 -25 -135 0 -104 1 -112 25 -135 15 -16
36 -25 55 -25 19 0 40 9 55 25 24 23 25 31 25 135 0 104 -1 112 -25 135 -15
16 -36 25 -55 25 -19 0 -40 -9 -55 -25z"/>
<path d="M1705 4135 c-24 -23 -25 -31 -25 -135 0 -104 1 -112 25 -135 15 -16
36 -25 55 -25 19 0 40 9 55 25 24 23 25 31 25 135 0 104 -1 112 -25 135 -15
16 -36 25 -55 25 -19 0 -40 -9 -55 -25z"/>
<path d="M2105 4135 c-24 -23 -25 -31 -25 -135 0 -104 1 -112 25 -135 15 -16
36 -25 55 -25 19 0 40 9 55 25 24 23 25 31 25 135 0 104 -1 112 -25 135 -15
16 -36 25 -55 25 -19 0 -40 -9 -55 -25z"/>
<path d="M2505 4135 c-24 -23 -25 -31 -25 -135 0 -104 1 -112 25 -135 15 -16
36 -25 55 -25 19 0 40 9 55 25 24 23 25 31 25 135 0 104 -1 112 -25 135 -15
16 -36 25 -55 25 -19 0 -40 -9 -55 -25z"/>
<path d="M1321 3665 c-255 -72 -410 -332 -346 -580 67 -256 329 -415 580 -350
172 45 305 179 350 352 23 87 20 139 -10 168 -24 25 -26 25 -205 25 -179 0
-181 0 -205 -25 -16 -15 -25 -36 -25 -55 0 -19 9 -40 25 -55 23 -24 30 -25
145 -25 66 0 120 -3 120 -6 0 -3 -14 -33 -32 -66 -35 -66 -67 -96 -142 -136
-44 -23 -63 -27 -136 -26 -72 0 -93 4 -136 26 -75 39 -107 70 -145 140 -31 58
-34 70 -33 148 0 69 5 94 24 135 50 103 149 171 263 182 51 4 76 1 140 -21 82
-29 105 -28 137 7 27 28 25 73 -3 101 -61 61 -253 93 -366 61z"/>
<path d="M3480 1880 c-13 -13 -20 -33 -20 -57 0 -33 9 -46 93 -130 82 -82 97
-93 128 -93 46 0 79 34 79 80 0 29 -12 46 -93 127 -84 84 -97 93 -130 93 -24
0 -44 -7 -57 -20z"/>
</g>
</svg>
