<svg width="0" height="0" class="hidden">
  <symbol xmlns="http://www.w3.org/2000/svg" viewBox="0 0 21 20" id="icon-instagram">
    <path d="M10.333 1.802c2.67 0 2.987.01 4.042.059 2.71.123 3.976 1.409 4.1 4.099.048 1.054.057 1.37.057 4.04 0 2.672-.01 2.988-.058 4.042-.124 2.687-1.386 3.975-4.099 4.099-1.055.048-1.37.058-4.042.058-2.67 0-2.986-.01-4.04-.058-2.717-.124-3.976-1.416-4.1-4.1-.048-1.054-.058-1.37-.058-4.041 0-2.67.01-2.986.058-4.04.124-2.69 1.387-3.977 4.1-4.1 1.054-.048 1.37-.058 4.04-.058zm0-1.802C7.618 0 7.278.012 6.211.06 2.579.227.56 2.242.394 5.877.345 6.944.334 7.284.334 10s.011 3.057.06 4.123c.166 3.632 2.181 5.65 5.816 5.817 1.068.048 1.408.06 4.123.06 2.716 0 3.057-.012 4.124-.06 3.628-.167 5.651-2.182 5.816-5.817.049-1.066.06-1.407.06-4.123s-.011-3.056-.06-4.122C20.11 2.249 18.093.228 14.458.06 13.39.01 13.049 0 10.333 0zm0 4.865a5.135 5.135 0 100 10.27 5.135 5.135 0 000-10.27zm0 8.468a3.333 3.333 0 110-6.666 3.333 3.333 0 010 6.666zm5.339-9.87a1.2 1.2 0 10-.001 2.4 1.2 1.2 0 000-2.4z"></path>
  </symbol>
  <symbol version="1.0" xmlns="http://www.w3.org/2000/svg" preserveAspectRatio="xMidYMid meet" viewBox="0 0 512.000000 512.000000" id="icon-maps">
    <g transform="translate(0.000000,512.000000) scale(0.100000,-0.100000)" stroke="none">
      <path d="M3865 5089 c-275 -37 -491 -150 -687 -358 l-86 -91 -1049 0 c-701 0
-1069 -4 -1109 -11 -212 -38 -405 -231 -443 -443 -8 -41 -11 -560 -11 -1631 0
-1538 0 -1573 20 -1650 52 -202 204 -354 407 -405 77 -20 107 -20 1683 -18
l1605 3 66 26 c96 37 153 73 215 136 63 64 96 118 133 212 l26 66 3 967 3 968
93 142 c230 351 333 577 371 811 93 572 -293 1133 -865 1258 -105 22 -280 31
-375 18z m275 -164 c450 -68 787 -435 817 -889 11 -171 -32 -354 -132 -561
-68 -141 -126 -236 -355 -585 -254 -387 -352 -560 -431 -762 -19 -49 -36 -88
-39 -88 -3 0 -16 28 -29 63 -80 209 -187 400 -441 787 -229 349 -287 444 -355
585 -166 344 -177 628 -35 921 138 286 402 481 715 530 109 17 173 16 285 -1z
m-1172 -516 c-61 -145 -81 -248 -82 -419 -1 -166 6 -212 56 -369 l30 -94
-1166 -1166 -1166 -1166 2 1490 3 1490 32 67 c17 37 50 87 72 111 44 48 135
101 197 116 22 5 479 9 1046 10 l1006 1 -30 -71z m112 -1101 c18 -35 73 -128
123 -207 l89 -144 -1153 -1154 c-1128 -1128 -1155 -1154 -1187 -1149 -132 20
-272 159 -298 295 -7 33 -3 37 1187 1227 657 657 1197 1194 1200 1194 3 0 21
-28 39 -62z m402 -635 c259 -404 365 -634 422 -923 27 -135 42 -160 96 -160
53 0 70 26 91 143 39 217 137 460 291 721 39 66 77 130 84 141 12 16 14 -107
14 -790 l0 -809 -188 187 c-166 165 -192 187 -221 187 -43 0 -81 -38 -81 -82
0 -28 24 -56 216 -249 l216 -216 -55 -57 c-75 -77 -160 -116 -265 -123 l-77
-5 -708 709 -707 708 145 145 145 145 183 -183 c162 -161 187 -182 216 -182
43 0 81 38 81 81 0 29 -21 54 -182 216 l-183 183 180 180 c99 99 183 180 186
180 4 0 49 -66 101 -147z m-337 -1383 l650 -650 -1300 0 -1300 0 650 650 c357
358 650 650 650 650 0 0 293 -292 650 -650z"></path>
      <path d="M3783 4425 c-121 -60 -213 -176 -248 -312 -65 -249 94 -511 352 -578
249 -65 511 94 578 352 32 122 8 193 -65 193 -49 0 -76 -34 -83 -109 -8 -73
-54 -168 -100 -207 -16 -14 -53 -37 -81 -52 -43 -22 -64 -26 -136 -26 -72 0
-93 4 -136 26 -75 40 -107 70 -145 140 -30 57 -33 71 -34 148 0 70 5 94 25
135 33 67 92 124 164 159 33 15 66 35 73 44 34 46 -7 122 -65 122 -16 0 -61
-16 -99 -35z"></path>
      <path d="M4095 4425 c-46 -45 -29 -104 38 -135 23 -11 64 -38 91 -60 53 -44
64 -47 105 -25 32 16 41 33 41 74 0 53 -156 171 -225 171 -14 0 -37 -11 -50
-25z"></path>
      <path d="M3935 4146 c-101 -44 -125 -178 -46 -257 112 -113 296 -12 267 146
-18 94 -131 151 -221 111z"></path>
      <path d="M905 4135 c-24 -23 -25 -31 -25 -135 0 -104 1 -112 25 -135 15 -16
36 -25 55 -25 19 0 40 9 55 25 24 23 25 31 25 135 0 104 -1 112 -25 135 -15
16 -36 25 -55 25 -19 0 -40 -9 -55 -25z"></path>
      <path d="M1305 4135 c-24 -23 -25 -31 -25 -135 0 -104 1 -112 25 -135 15 -16
36 -25 55 -25 19 0 40 9 55 25 24 23 25 31 25 135 0 104 -1 112 -25 135 -15
16 -36 25 -55 25 -19 0 -40 -9 -55 -25z"></path>
      <path d="M1705 4135 c-24 -23 -25 -31 -25 -135 0 -104 1 -112 25 -135 15 -16
36 -25 55 -25 19 0 40 9 55 25 24 23 25 31 25 135 0 104 -1 112 -25 135 -15
16 -36 25 -55 25 -19 0 -40 -9 -55 -25z"></path>
      <path d="M2105 4135 c-24 -23 -25 -31 -25 -135 0 -104 1 -112 25 -135 15 -16
36 -25 55 -25 19 0 40 9 55 25 24 23 25 31 25 135 0 104 -1 112 -25 135 -15
16 -36 25 -55 25 -19 0 -40 -9 -55 -25z"></path>
      <path d="M2505 4135 c-24 -23 -25 -31 -25 -135 0 -104 1 -112 25 -135 15 -16
36 -25 55 -25 19 0 40 9 55 25 24 23 25 31 25 135 0 104 -1 112 -25 135 -15
16 -36 25 -55 25 -19 0 -40 -9 -55 -25z"></path>
      <path d="M1321 3665 c-255 -72 -410 -332 -346 -580 67 -256 329 -415 580 -350
172 45 305 179 350 352 23 87 20 139 -10 168 -24 25 -26 25 -205 25 -179 0
-181 0 -205 -25 -16 -15 -25 -36 -25 -55 0 -19 9 -40 25 -55 23 -24 30 -25
145 -25 66 0 120 -3 120 -6 0 -3 -14 -33 -32 -66 -35 -66 -67 -96 -142 -136
-44 -23 -63 -27 -136 -26 -72 0 -93 4 -136 26 -75 39 -107 70 -145 140 -31 58
-34 70 -33 148 0 69 5 94 24 135 50 103 149 171 263 182 51 4 76 1 140 -21 82
-29 105 -28 137 7 27 28 25 73 -3 101 -61 61 -253 93 -366 61z"></path>
      <path d="M3480 1880 c-13 -13 -20 -33 -20 -57 0 -33 9 -46 93 -130 82 -82 97
-93 128 -93 46 0 79 34 79 80 0 29 -12 46 -93 127 -84 84 -97 93 -130 93 -24
0 -44 -7 -57 -20z"></path>
    </g>
  </symbol>
  <symbol xmlns="http://www.w3.org/2000/svg" viewBox="0 0 20 20" id="icon-pinterest">
    <path d="M10 0C4.478 0 0 4.477 0 10c0 4.237 2.636 7.855 6.356 9.312-.088-.791-.167-2.005.035-2.868.182-.78 1.172-4.97 1.172-4.97s-.299-.6-.299-1.486c0-1.39.806-2.428 1.81-2.428.852 0 1.264.64 1.264 1.408 0 .858-.545 2.14-.828 3.33-.236.995.5 1.807 1.48 1.807 1.778 0 3.144-1.874 3.144-4.58 0-2.393-1.72-4.068-4.177-4.068-2.845 0-4.515 2.135-4.515 4.34 0 .859.331 1.781.745 2.281a.3.3 0 01.069.288l-.278 1.133c-.044.183-.145.223-.335.134-1.249-.581-2.03-2.407-2.03-3.874 0-3.154 2.292-6.052 6.608-6.052 3.469 0 6.165 2.473 6.165 5.776 0 3.447-2.173 6.22-5.19 6.22-1.013 0-1.965-.525-2.291-1.148l-.623 2.378c-.226.869-.835 1.958-1.244 2.621.937.29 1.931.446 2.962.446 5.522 0 10-4.477 10-10S15.522 0 10 0z"></path>
  </symbol>
  <symbol xmlns="http://www.w3.org/2000/svg" viewBox="0 0 21 18" id="icon-twitter">
    <path d="M20.667 2.797a8.192 8.192 0 01-2.357.646 4.11 4.11 0 001.804-2.27 8.22 8.22 0 01-2.606.996A4.096 4.096 0 0014.513.873c-2.649 0-4.595 2.472-3.997 5.038a11.648 11.648 0 01-8.457-4.287 4.109 4.109 0 001.27 5.478A4.086 4.086 0 011.47 6.59c-.045 1.901 1.317 3.68 3.29 4.075a4.113 4.113 0 01-1.853.07 4.106 4.106 0 003.834 2.85 8.25 8.25 0 01-6.075 1.7 11.616 11.616 0 006.29 1.843c7.618 0 11.922-6.434 11.662-12.205a8.354 8.354 0 002.048-2.124z"></path>
  </symbol>
  <symbol xmlns="http://www.w3.org/2000/svg" viewBox="0 0 21 20" id="icon-youtube">
    <path d="M10.333 0c-5.522 0-10 4.478-10 10 0 5.523 4.478 10 10 10 5.523 0 10-4.477 10-10 0-5.522-4.477-10-10-10zm3.701 14.077c-1.752.12-5.653.12-7.402 0C4.735 13.947 4.514 13.018 4.5 10c.014-3.024.237-3.947 2.132-4.077 1.749-.12 5.651-.12 7.402 0 1.898.13 2.118 1.059 2.133 4.077-.015 3.024-.238 3.947-2.133 4.077zM8.667 8.048l4.097 1.949-4.097 1.955V8.048z"></path>
  </symbol>
  <symbol xmlns="http://www.w3.org/2000/svg" viewBox="0 0 20 20" id="icon-facebook">
    <path d="M18.896 0H1.104C.494 0 0 .494 0 1.104v17.793C0 19.506.494 20 1.104 20h9.58v-7.745H8.076V9.237h2.606V7.01c0-2.583 1.578-3.99 3.883-3.99 1.104 0 2.052.082 2.329.119v2.7h-1.598c-1.254 0-1.496.597-1.496 1.47v1.928h2.989l-.39 3.018h-2.6V20h5.098c.608 0 1.102-.494 1.102-1.104V1.104C20 .494 19.506 0 18.896 0z"></path>
  </symbol>
</svg>